<?xml version="1.0" encoding="iso-8859-1"?>
<!-- Uploaded to: SVG Repo, www.svgrepo.com, Generator: SVG Repo Mixer Tools -->
<svg fill="#000000" height="800px" width="800px" version="1.1" id="Layer_1" xmlns="http://www.w3.org/2000/svg" xmlns:xlink="http://www.w3.org/1999/xlink" 
	 viewBox="0 0 512.001 512.001" xml:space="preserve">
<g>
	<g>
		<g>
			<path d="M206.139,150.906h-54.511c-6.02,0-10.902,4.881-10.902,10.902v54.511c0,6.021,4.882,10.902,10.902,10.902h54.511
				c6.02,0,10.902-4.881,10.902-10.902v-54.511C217.041,155.787,212.159,150.906,206.139,150.906z M195.237,205.418H162.53v-32.707
				h32.707V205.418z"/>
			<path d="M234.212,189.064c0,6.021,4.881,10.902,10.902,10.902h112.294c6.02,0,10.902-4.881,10.902-10.902
				c0-6.021-4.882-10.902-10.902-10.902H245.115C239.094,178.162,234.212,183.043,234.212,189.064z"/>
			<path d="M206.139,249.027h-54.511c-6.02,0-10.902,4.881-10.902,10.902v54.511c0,6.021,4.882,10.902,10.902,10.902h54.511
				c6.02,0,10.902-4.881,10.902-10.902v-54.511C217.041,253.908,212.159,249.027,206.139,249.027z M195.237,303.538H162.53v-32.707
				h32.707V303.538z"/>
			<path d="M357.408,276.283H245.115c-6.02,0-10.902,4.881-10.902,10.902c0,6.021,4.881,10.902,10.902,10.902h112.294
				c6.02,0,10.902-4.881,10.902-10.902C368.311,281.164,363.428,276.283,357.408,276.283z"/>
			<path d="M206.139,347.148h-54.511c-6.02,0-10.902,4.881-10.902,10.902v54.511c0,6.021,4.882,10.902,10.902,10.902h54.511
				c6.02,0,10.902-4.881,10.902-10.902V358.05C217.041,352.029,212.159,347.148,206.139,347.148z M195.237,401.659H162.53v-32.707
				h32.707V401.659z"/>
			<path d="M357.408,374.403H245.115c-6.02,0-10.902,4.881-10.902,10.902s4.881,10.902,10.902,10.902h112.294
				c6.02,0,10.902-4.881,10.902-10.902S363.428,374.403,357.408,374.403z"/>
			<path d="M256.001,443.36h-10.886c-6.02,0-10.902,4.881-10.902,10.902c0,6.021,4.882,10.902,10.902,10.902h10.886
				c6.02,0,10.902-4.881,10.902-10.902C266.903,448.241,262.022,443.36,256.001,443.36z"/>
			<path d="M405.907,69.03h-51.786V54.511c0-6.021-4.882-10.902-10.902-10.902h-46.335v-2.726C296.884,18.34,278.544,0,256.001,0
				s-40.884,18.34-40.884,40.884v2.726h-46.335c-6.02,0-10.902,4.881-10.902,10.902V69.03h-51.786
				c-6.02,0-10.902,4.881-10.902,10.902v421.167c0,6.021,4.882,10.902,10.902,10.902h299.813c6.02,0,10.902-4.881,10.902-10.902
				V79.932C416.809,73.911,411.928,69.03,405.907,69.03z M236.922,40.884c0-10.52,8.559-19.079,19.079-19.079
				c10.52,0,19.079,8.559,19.079,19.079v2.726h-38.158V40.884z M179.685,65.414h46.335h59.963h46.335v32.707H179.685V65.414z
				 M395.005,443.36h-86.657c-6.02,0-10.902,4.881-10.902,10.902c0,6.021,4.882,10.902,10.902,10.902h86.657v25.032H116.996v-0.001
				V90.835h40.884v18.188c0,6.021,4.882,10.902,10.902,10.902h174.437c6.02,0,10.902-4.881,10.902-10.902V90.835h40.884V443.36z"/>
		</g>
	</g>
</g>
</svg>